<?xml version="1.0" encoding="utf-8"?>
<!-- Generator: Adobe Illustrator 23.0.5, SVG Export Plug-In . SVG Version: 6.00 Build 0)  -->
<svg version="1.1" id="Capa_1" xmlns="http://www.w3.org/2000/svg" xmlns:xlink="http://www.w3.org/1999/xlink" x="0px" y="0px"
	 viewBox="0 0 211.6 211.6" style="enable-background:new 0 0 211.6 211.6;" xml:space="preserve">
<style type="text/css">
	.st0{fill:#FBB901;}
</style>
<g>
	<g>
		<path class="st0" d="M26.1,179.2H8l8.9-29.7c0.1-0.5,0.2-0.9,0.1-1.4l-3.4-27.3c-0.2-1.9-1.9-3.2-3.8-3c-1.9,0.2-3.2,1.9-3,3.8
			l3.3,26.6l-10,33.4c-0.3,1-0.1,2.2,0.5,3c0.6,0.9,1.7,1.4,2.7,1.4h22.7c1.9,0,3.4-1.5,3.4-3.4C29.5,180.7,28,179.2,26.1,179.2z"/>
	</g>
</g>
<g>
	<g>
		<path class="st0" d="M145.5,179.2h-84c-1.9,0-3.4,1.5-3.4,3.4c0,1.9,1.5,3.4,3.4,3.4h84c1.9,0,3.4-1.5,3.4-3.4
			S147.3,179.2,145.5,179.2z"/>
	</g>
</g>
<g>
	<g>
		<path class="st0" d="M185.5,144l-29.8-4.5c-1.9-0.3-3.6,1-3.9,2.9c-0.3,1.9,1,3.6,2.9,3.9l30,4.5c0.1,0,0.2,0,0.3,0
			c7.7,0.5,19.9,7.2,19.9,14v14.4h-23c-1.9,0-3.4,1.5-3.4,3.4c0,1.9,1.5,3.4,3.4,3.4h26.4c1.9,0,3.4-1.5,3.4-3.4v-17.8
			C211.6,153.4,195.9,144.8,185.5,144z"/>
	</g>
</g>
<g>
	<g>
		<path class="st0" d="M44.4,162.1c-11.3,0-20.5,9.2-20.5,20.5s9.2,20.5,20.5,20.5s20.5-9.2,20.5-20.5S55.7,162.1,44.4,162.1z
			 M44.4,196.3c-7.5,0-13.7-6.1-13.7-13.7S36.8,169,44.4,169S58,175.1,58,182.6C58,190.1,51.9,196.3,44.4,196.3z"/>
	</g>
</g>
<g>
	<g>
		<path class="st0" d="M163.8,162.1c-11.3,0-20.5,9.2-20.5,20.5s9.2,20.5,20.5,20.5s20.5-9.2,20.5-20.5S175.1,162.1,163.8,162.1z
			 M163.8,196.3c-7.5,0-13.7-6.1-13.7-13.7s6.1-13.7,13.7-13.7s13.7,6.1,13.7,13.7S171.4,196.3,163.8,196.3z"/>
	</g>
</g>
<g>
	<g>
		<path class="st0" d="M155.8,132.3l-27.3-23.9c-0.7-0.6-1.6-0.9-2.5-0.8L9.9,117.8c-1.6,0.1-2.9,1.4-3.1,3
			c-0.2,1.6,0.8,3.1,2.4,3.6l64.9,20.5c0.3,0.1,0.6,0.1,0.9,0.2l78.5,3.4c0,0,0.1,0,0.1,0c0.9,0,1.7-0.3,2.4-0.9
			c0.7-0.6,1.1-1.5,1.1-2.5v-10.2C157,133.8,156.6,132.9,155.8,132.3z M150.2,141.5l-74.5-3.2l-48.1-15.2l97.6-8.6l25,21.9V141.5z"
			/>
	</g>
</g>
<g>
	<g>
		<path class="st0" d="M153.6,141.7c-1.9,0-3.4,1.5-3.4,3.4V169c0,1.9,1.5,3.4,3.4,3.4s3.4-1.5,3.4-3.4v-23.9
			C157,143.2,155.5,141.7,153.6,141.7z"/>
	</g>
</g>
<g>
	<g>
		<path class="st0" d="M85.3,110.9c-1.9,0-3.4,1.5-3.4,3.4v68.3c0,1.9,1.5,3.4,3.4,3.4s3.4-1.5,3.4-3.4v-68.3
			C88.7,112.5,87.2,110.9,85.3,110.9z"/>
	</g>
</g>
<g>
	<g>
		<path class="st0" d="M194.6,46.1h-23.7L160.3,11c-0.4-1.4-1.8-2.4-3.3-2.4h-13.7c-1,0-1.9,0.4-2.6,1.2c-0.6,0.8-0.9,1.8-0.8,2.7
			l5.1,33.6h-30l-2.6-7.9c-0.5-1.4-1.8-2.3-3.2-2.3H95.6c-1.1,0-2.1,0.5-2.8,1.4c-0.6,0.9-0.8,2-0.5,3.1l6.5,19.4l-6.5,19.4
			c-0.3,1-0.2,2.2,0.5,3.1c0.6,0.9,1.7,1.4,2.8,1.4h13.7c1.5,0,2.8-0.9,3.2-2.3l2.6-7.9h30L140,107c-0.1,1,0.1,2,0.8,2.7
			c0.6,0.8,1.6,1.2,2.6,1.2H157c1.5,0,2.8-1,3.3-2.4l10.7-35.1h23.6c7.5,0,13.7-6.1,13.7-13.7C208.2,52.2,202.1,46.1,194.6,46.1z
			 M194.6,66.6h-26.1c-1.5,0-2.8,1-3.3,2.4l-10.7,35.1h-7.2l5.1-33.6c0.1-1-0.1-2-0.8-2.7s-1.6-1.2-2.6-1.2h-36.4
			c-1.5,0-2.8,0.9-3.2,2.3l-2.6,7.9h-6.5l5.3-15.9c0.2-0.7,0.2-1.5,0-2.2l-5.3-16h6.5l2.6,7.9c0.5,1.4,1.8,2.3,3.2,2.3H149
			c1,0,1.9-0.4,2.6-1.2c0.6-0.8,0.9-1.8,0.8-2.7l-5.1-33.6h7.2l10.6,35.1c0.4,1.4,1.8,2.4,3.3,2.4h26.2c3.8,0,6.8,3.1,6.8,6.8
			C201.4,63.5,198.3,66.6,194.6,66.6z"/>
	</g>
</g>
<g>
	<g>
		<path class="st0" d="M112.6,15.4H75.1c-1.9,0-3.4,1.5-3.4,3.4s1.5,3.4,3.4,3.4h37.5c1.9,0,3.4-1.5,3.4-3.4S114.5,15.4,112.6,15.4z
			"/>
	</g>
</g>
<g>
	<g>
		<path class="st0" d="M68.3,35.8H23.9c-1.9,0-3.4,1.5-3.4,3.4s1.5,3.4,3.4,3.4h44.4c1.9,0,3.4-1.5,3.4-3.4S70.2,35.8,68.3,35.8z"/>
	</g>
</g>
<g>
	<g>
		<path class="st0" d="M81.9,56.3H68.3c-1.9,0-3.4,1.5-3.4,3.4s1.5,3.4,3.4,3.4h13.7c1.9,0,3.4-1.5,3.4-3.4S83.8,56.3,81.9,56.3z"/>
	</g>
</g>
<g>
	<g>
		<path class="st0" d="M54.6,56.3H27.3c-1.9,0-3.4,1.5-3.4,3.4s1.5,3.4,3.4,3.4h27.3c1.9,0,3.4-1.5,3.4-3.4S56.5,56.3,54.6,56.3z"/>
	</g>
</g>
<g>
	<g>
		<path class="st0" d="M71.7,76.8H61.4c-1.9,0-3.4,1.5-3.4,3.4s1.5,3.4,3.4,3.4h10.2c1.9,0,3.4-1.5,3.4-3.4S73.6,76.8,71.7,76.8z"/>
	</g>
</g>
<g>
	<g>
		<path class="st0" d="M119.5,93.9h-13.7c-1.9,0-3.4,1.5-3.4,3.4s1.5,3.4,3.4,3.4h13.7c1.9,0,3.4-1.5,3.4-3.4S121.3,93.9,119.5,93.9
			z"/>
	</g>
</g>
</svg>
