<?xml version="1.0" encoding="utf-8"?>
<!-- Generator: Adobe Illustrator 23.0.5, SVG Export Plug-In . SVG Version: 6.00 Build 0)  -->
<svg version="1.1" id="Layer_1" xmlns="http://www.w3.org/2000/svg" xmlns:xlink="http://www.w3.org/1999/xlink" x="0px" y="0px"
	 viewBox="0 0 512 512" style="enable-background:new 0 0 512 512;" xml:space="preserve">
<style type="text/css">
	.st0{fill:#FBB901;}
</style>
<path class="st0" d="M393.3,74l-7.1,13.2l57.4,30.9v131.9c0,114.9-77.1,216-187.8,246.4C170,472.9,101.9,405.3,77.7,319.7l-14.5,4.1
	c12.6,44.6,36.7,85.5,69.7,118.3c33.5,33.3,75.3,57.3,121,69.5l1.9,0.5l1.9-0.5c118.3-31.5,200.8-139,200.8-261.4V109.2L393.3,74z"
	/>
<path class="st0" d="M68,250.1V118.2L255.8,17.1l116.3,62.6l7.1-13.2L255.8,0L53,109.2v140.9c0,19.4,2.1,38.8,6.2,57.7l14.7-3.2
	C70,286.7,68,268.4,68,250.1z"/>
<path class="st0" d="M385.2,336.8l13.7,6.1c13-29.4,19.6-60.6,19.6-92.8V133.1L255.8,45.5L93.1,133.1v116.9
	c0,49.2,15.4,96.3,44.6,136.1c29.1,39.7,69.1,68.6,115.9,83.5l2.3,0.7l2.3-0.7c29-9.3,55.6-24,78.8-43.7
	c22.8-19.3,41.4-42.6,55.3-69.1l-13.3-7c-26.2,50-69.9,87.1-123.1,104.7c-88.5-29.3-147.7-111.2-147.7-204.6v-108l147.7-79.5
	l147.7,79.5v108C403.5,280.1,397.3,309.3,385.2,336.8z"/>
<path class="st0" d="M368.4,255.9c0-23.6-7.2-46.2-20.9-65.4l-12.2,8.7c11.8,16.6,18.1,36.2,18.1,56.6c0,53.8-43.8,97.6-97.6,97.6
	c-53.8,0-97.6-43.8-97.6-97.6s43.8-97.6,97.6-97.6c17.2,0,34.1,4.5,48.8,13.1l7.5-13c-17.1-9.9-36.5-15.1-56.3-15.1
	c-62.1,0-112.7,50.5-112.7,112.7s50.5,112.7,112.7,112.7S368.4,318,368.4,255.9z"/>
<path class="st0" d="M326.5,188.5l10.9-10.4c-3.7-3.9-7.7-7.5-11.9-10.8l-9.3,11.8C319.8,182,323.3,185.1,326.5,188.5z"/>
<path class="st0" d="M288.3,188.3h-65.1v35h-35v65.1h35v35h65.1v-35h35v-65.1h-35V188.3z M308.4,238.4v35h-35.1v35.1h-35v-35.1
	h-35.1v-35h35.1v-35.1h35v35.1H308.4z"/>
<path class="st0" d="M208.6,414.3l8.6-12.3c-7.5-5.2-14.6-11.1-21.2-17.4l-10.4,10.9C192.8,402.3,200.5,408.7,208.6,414.3z"/>
<path class="st0" d="M235.5,430.2l6.6-13.5c-4.3-2.1-8.6-4.4-12.7-6.8l-7.6,12.9C226.2,425.4,230.8,427.9,235.5,430.2z"/>
<path class="st0" d="M346.7,145.6l7.1-13.2l13.2,7.1l-7.1,13.2L346.7,145.6z"/>
<path class="st0" d="M320.2,131.4l7.1-13.2l13.2,7.1l-7.1,13.2L320.2,131.4z"/>
<path class="st0" d="M269.8,104.2l7.1-13.2l37.2,20l-7.1,13.2L269.8,104.2z"/>
</svg>
